<?xml version="1.0" encoding="UTF-8"?>
<svg version="1.1" xmlns="http://www.w3.org/2000/svg" width="178" height="142">
<path d="M0 0 C58.74 0 117.48 0 178 0 C178 46.86 178 93.72 178 142 C119.26 142 60.52 142 0 142 C0 95.14 0 48.28 0 0 Z " fill="#FDFCFC" transform="translate(0,0)"/>
<path d="M0 0 C3.1875 1.4375 3.1875 1.4375 6 3 C9.6917423 4.23058077 10.38765472 3.59931331 13.8125 2 C17.97616331 0.23985079 20.56949384 -0.51285576 25 1 C25.99 1.66 26.98 2.32 28 3 C28.33 2.01 28.66 1.02 29 0 C29.99 0 30.98 0 32 0 C32 7.59 32 15.18 32 23 C31.01 23 30.02 23 29 23 C28.505 22.01 28.505 22.01 28 21 C27.484375 21.33 26.96875 21.66 26.4375 22 C22.93860484 23.43544417 20.77880885 23.49558149 17 23 C13.80370208 21.24916165 10.89638692 19.20677098 8 17 C7.21625 17.804375 6.4325 18.60875 5.625 19.4375 C1.99439481 22.98166221 0.05918586 23.2820093 -5.0234375 23.2265625 C-7.73231128 22.91605918 -9.16537084 21.98751492 -11 20 C-11 19.34 -11 18.68 -11 18 C-9.700625 18.5259375 -9.700625 18.5259375 -8.375 19.0625 C-4.75174758 20.068959 -2.6146678 19.86063519 1 19 C1.33 17.68 1.66 16.36 2 15 C1.31292969 14.74605469 0.62585937 14.49210937 -0.08203125 14.23046875 C-0.98308594 13.88628906 -1.88414063 13.54210937 -2.8125 13.1875 C-3.70582031 12.85105469 -4.59914063 12.51460937 -5.51953125 12.16796875 C-7.94824742 11.02436854 -9.36859837 10.11538411 -11 8 C-10.92206668 4.8826674 -10.44296728 3.47577967 -8.3125 1.1875 C-5.25992432 -0.38003886 -3.40329076 -0.40839489 0 0 Z " fill="#FCE7ED" transform="translate(29,83)"/>
<path d="M0 0 C0.99 0 1.98 0 3 0 C3.33 0.66 3.66 1.32 4 2 C4.53625 1.67 5.0725 1.34 5.625 1 C8.70340819 -0.29617187 10.67716638 -0.39874003 14 0 C17.6578218 2.03993908 19.66946174 3.50419262 22 7 C22.6820176 10.76904461 22.83098707 14.45628171 20.984375 17.88671875 C18.84357352 20.5498242 17.25941392 21.91352869 14 23 C7.52066116 23.34710744 7.52066116 23.34710744 4 21 C3.67 24.63 3.34 28.26 3 32 C2.01 32 1.02 32 0 32 C0 21.44 0 10.88 0 0 Z " fill="#161616" transform="translate(17,41)"/>
<path d="M0 0 C3.44762254 2.56737848 4.75559111 4.09219553 5.875 8.25 C5.91625 9.1575 5.9575 10.065 6 11 C5 12 5 12 3.23413086 12.11352539 C2.48526611 12.10828857 1.73640137 12.10305176 0.96484375 12.09765625 C0.15595703 12.09443359 -0.65292969 12.09121094 -1.48632812 12.08789062 C-2.33646484 12.07951172 -3.18660156 12.07113281 -4.0625 12.0625 C-4.91650391 12.05798828 -5.77050781 12.05347656 -6.65039062 12.04882812 C-8.76695663 12.03700373 -10.88348685 12.01906769 -13 12 C-11.74248942 15.01029627 -11.74248942 15.01029627 -10 18 C-6.07556464 19.07030055 -2.86200305 19.3903211 1 18 C1 17.34 1 16.68 1 16 C1.99 16.33 2.98 16.66 4 17 C1.375 20.875 1.375 20.875 -2 22 C-7.88400994 22.66611433 -7.88400994 22.66611433 -10.75390625 20.953125 C-13.62993989 18.59685648 -15.78551824 16.78969204 -16.23828125 13.01171875 C-16.36800555 8.94929982 -16.37432746 6.62833539 -14.25 3.0625 C-9.70313694 -1.1054578 -6.04786808 -1.84795969 0 0 Z " fill="#D13457" transform="translate(120,84)"/>
<path d="M0 0 C3.80470451 0.7133821 5.41196019 1.67868421 8 4.5625 C9.1659741 8.57053597 9.43240501 10.61532711 7.6875 14.4375 C6 16.5625 6 16.5625 4 17.5625 C1.06592458 17.84644278 -1.15046384 18.05244001 -4 17.5625 C-7.24985922 14.88136615 -7.89575014 13.21116582 -8.5625 9.0625 C-8 5.5625 -8 5.5625 -5.875 2.625 C-3 0.5625 -3 0.5625 0 0 Z " fill="#FCF5F7" transform="translate(49,85.4375)"/>
<path d="M0 0 C2.875 1.4375 2.875 1.4375 5 4 C5.90705593 8.29865635 5.72920717 11.75427109 3.5 15.5625 C-0.03886571 17.59734778 -3.01905863 17.92181634 -7 17 C-9.65041483 14.87966814 -10.7168575 13.36178059 -11.41015625 10.02734375 C-11.68407125 6.26979185 -11.319489 4.37586941 -8.875 1.5 C-5.48749667 -0.26739304 -3.7664742 -0.6277457 0 0 Z " fill="#F9F9F9" transform="translate(31,44)"/>
<path d="M0 0 C2.875 2.0625 2.875 2.0625 5 5 C5.66154724 9.11629392 5.39475662 11.22693494 3.5 14.9375 C0.459102 17.44624085 -1.24138659 17.69373981 -5.09375 17.40625 C-7 17 -7 17 -9.5 15.5625 C-11.72920717 11.75427109 -11.90705593 8.29865635 -11 4 C-7.79382821 0.13373402 -4.93752469 -0.92578588 0 0 Z " fill="#FAFAFA" transform="translate(82,44)"/>
<path d="M0 0 C0.99 0 1.98 0 3 0 C3.33 2.97 3.66 5.94 4 9 C5.32 8.34 6.64 7.68 8 7 C12.64249233 6.50611784 15.31346236 7.11055158 19 10 C22.16955197 13.93461624 22.53348798 17.02077887 22 22 C20.20962547 26.14613048 18.14613048 28.20962547 14 30 C8.96266839 30.5397141 6.10173817 29.98308231 2 27 C2 27.99 2 28.98 2 30 C1.34 30 0.68 30 0 30 C0 20.1 0 10.2 0 0 Z M3 14 C2.09294407 18.29865635 2.27079283 21.75427109 4.5 25.5625 C8.0347576 27.59498562 11.02340703 27.92895819 15 27 C18.24985922 24.31886615 18.89575014 22.64866582 19.5625 18.5 C19.25040832 14.88209505 19.25040832 14.88209505 16.875 12.0625 C14.1662664 9.81214497 14.1662664 9.81214497 11 9.4375 C7.11734319 10.16549815 5.53771747 10.93981129 3 14 Z " fill="#191919" transform="translate(68,34)"/>
<path d="M0 0 C1.98 0.99 1.98 0.99 4 2 C4.598125 1.690625 5.19625 1.38125 5.8125 1.0625 C9.12556285 -0.54670196 11.4756146 0.1961928 15 1 C17.77114353 2.29320032 19.47965802 3.30621069 21.3125 5.75 C22.62915455 10.05905126 22.63449518 13.67058152 20.6875 17.75 C16.87540984 22.83278689 16.87540984 22.83278689 13.9140625 23.3984375 C9.10334891 23.34918105 5.95324997 23.06058062 2 20 C2 23.63 2 27.26 2 31 C1.34 31 0.68 31 0 31 C0 20.77 0 10.54 0 0 Z M5.0625 4.5 C2.33192755 7.80978479 1.8522099 9.71408714 2 14 C3.75990314 17.59524336 3.75990314 17.59524336 7 20 C10.06643533 20.7938795 11.73642868 20.51802719 15 20 C17.66666667 18.66666667 17.66666667 18.66666667 19 16 C19.67208242 12.23015837 19.45372783 9.10596158 18 5.5625 C13.92200732 2.37656822 9.5947848 2.1856418 5.0625 4.5 Z " fill="#D2274F" transform="translate(68,83)"/>
<path d="M0 0 C0.99 0.66 1.98 1.32 3 2 C3.33 1.01 3.66 0.02 4 -1 C4.99 -1 5.98 -1 7 -1 C7 6.59 7 14.18 7 22 C6.01 22 5.02 22 4 22 C3.67 21.34 3.34 20.68 3 20 C2.484375 20.33 1.96875 20.66 1.4375 21 C-1.93843074 22.38499723 -4.37415116 22.37508781 -8 22 C-13.53846154 18.92307692 -13.53846154 18.92307692 -15 16 C-16.1803056 6.72190153 -16.1803056 6.72190153 -13.765625 3.19921875 C-9.13436185 -0.68691543 -5.7409736 -1.31563978 0 0 Z M-10.875 4.0625 C-13.25040832 6.88209505 -13.25040832 6.88209505 -13.5625 10.5 C-12.89575014 14.64866582 -12.24985922 16.31886615 -9 19 C-6.19758219 19.65466318 -3.80777729 19.61113838 -1 19 C2.33219018 16.86398066 2.89315459 15.3672811 4 11.5625 C4.31664742 7.93582765 4.31664742 7.93582765 2.1875 5.125 C-0.35534297 2.65480969 -1.31435615 2.09141918 -4.8125 1.625 C-8.15103868 1.75709764 -8.15103868 1.75709764 -10.875 4.0625 Z " fill="#D03051" transform="translate(54,84)"/>
<path d="M0 0 C1.17755859 0.11408203 1.17755859 0.11408203 2.37890625 0.23046875 C4.4375 0.8125 4.4375 0.8125 6.4375 3.8125 C2.77083333 3.8125 -0.89583333 3.8125 -4.5625 3.8125 C-4.5625 5.1325 -4.5625 6.4525 -4.5625 7.8125 C-3.86382812 8.07804687 -3.16515625 8.34359375 -2.4453125 8.6171875 C-1.08019531 9.14699219 -1.08019531 9.14699219 0.3125 9.6875 C1.66988281 10.20957031 1.66988281 10.20957031 3.0546875 10.7421875 C5.4375 11.8125 5.4375 11.8125 7.4375 13.8125 C7.875 16.1875 7.875 16.1875 7.4375 18.8125 C4.68642699 21.89703641 3.05407593 22.73542801 -1.0625 23.25 C-4.69358948 22.79611382 -6.63177557 21.94393595 -9.5625 19.8125 C-9.2325 19.1525 -8.9025 18.4925 -8.5625 17.8125 C-7.5725 18.1425 -6.5825 18.4725 -5.5625 18.8125 C-3.83454648 18.88052967 -2.10414635 18.89745645 -0.375 18.875 C0.52605469 18.86597656 1.42710937 18.85695313 2.35546875 18.84765625 C3.38607422 18.83025391 3.38607422 18.83025391 4.4375 18.8125 C4.10084085 16.33001876 4.10084085 16.33001876 2.4375 13.8125 C0.16890307 12.7918458 -2.06531395 12.1242554 -4.46875 11.48828125 C-6.5625 10.8125 -6.5625 10.8125 -8.5625 8.8125 C-8.375 5.3125 -8.375 5.3125 -7.5625 1.8125 C-4.29333718 -0.36694188 -3.69969614 -0.42055854 0 0 Z " fill="#151515" transform="translate(157.5625,41.1875)"/>
<path d="M0 0 C2.375 1 2.375 1 4 2 C3.67 2.99 3.34 3.98 3 5 C0.03 4.67 -2.94 4.34 -6 4 C-6.66 5.32 -7.32 6.64 -8 8 C-7.31292969 8.18175781 -6.62585938 8.36351563 -5.91796875 8.55078125 C-5.01691406 8.80214844 -4.11585937 9.05351563 -3.1875 9.3125 C-2.29417969 9.55613281 -1.40085937 9.79976562 -0.48046875 10.05078125 C2.09730428 11.03723613 3.34036236 11.81768427 5 14 C5.4375 17 5.4375 17 5 20 C3.22846223 22.21442221 1.88828869 22.86894101 -0.90625 23.28125 C-4.33289395 23.43468182 -6.45642853 23.29896431 -9.5 21.625 C-11 20 -11 20 -11 18 C-9.700625 18.5259375 -9.700625 18.5259375 -8.375 19.0625 C-4.75174758 20.068959 -2.6146678 19.86063519 1 19 C1.33 17.68 1.66 16.36 2 15 C1.31292969 14.74605469 0.62585937 14.49210937 -0.08203125 14.23046875 C-0.98308594 13.88628906 -1.88414063 13.54210937 -2.8125 13.1875 C-3.70582031 12.85105469 -4.59914063 12.51460937 -5.51953125 12.16796875 C-7.94824742 11.02436854 -9.36859837 10.11538411 -11 8 C-10.92206668 4.8826674 -10.44296728 3.47577967 -8.3125 1.1875 C-5.31645776 -0.35100818 -3.33212821 -0.34709669 0 0 Z " fill="#C72448" transform="translate(29,83)"/>
<path d="M0 0 C0.66 0 1.32 0 2 0 C2.33 0.66 2.66 1.32 3 2 C3.99 1.34 4.98 0.68 6 0 C9.8973724 -0.50835292 11.50556726 -0.32962183 14.8125 1.875 C17.89485849 4.8692911 17.98707913 5.48213147 18.09765625 9.9140625 C18.09100226 11.48440463 18.07906939 13.05473119 18.0625 14.625 C18.05798828 15.42679688 18.05347656 16.22859375 18.04882812 17.0546875 C18.03703168 19.03649006 18.01909605 21.01825433 18 23 C17.34 23 16.68 23 16 23 C15.97421875 21.96359375 15.9484375 20.9271875 15.921875 19.859375 C15.86558049 18.48954199 15.80823345 17.11975195 15.75 15.75 C15.72873047 14.72712891 15.72873047 14.72712891 15.70703125 13.68359375 C15.54028411 10.24860267 15.2299232 8.29942379 13.11328125 5.54296875 C11.07996375 3.81790819 11.07996375 3.81790819 8.4375 3.5625 C5.41812273 4.10443951 4.7587317 4.49034915 3 7 C2.62325482 9.79251583 2.39808059 12.38779201 2.3125 15.1875 C2.27833984 15.93708984 2.24417969 16.68667969 2.20898438 17.45898438 C2.12665706 19.30546838 2.06164719 21.15270994 2 23 C1.34 23 0.68 23 0 23 C0 15.41 0 7.82 0 0 Z " fill="#C7153C" transform="translate(132,83)"/>
<path d="M0 0 C0.66 0.33 1.32 0.66 2 1 C1.67 1.99 1.34 2.98 1 4 C0.01 3.67 -0.98 3.34 -2 3 C-5.81546222 2.6531398 -8.13278796 2.46633105 -11.4375 4.5 C-13.78057502 8.24892004 -13.48773804 10.61035762 -13 15 C-11.90748428 16.84285777 -11.90748428 16.84285777 -10 18 C-7.25756437 18.36270484 -7.25756437 18.36270484 -4.3125 18.1875 C-2.82169922 18.14689453 -2.82169922 18.14689453 -1.30078125 18.10546875 C-0.54152344 18.07066406 0.21773437 18.03585938 1 18 C1 18.99 1 19.98 1 21 C-2.4597331 22.72986655 -6.21710799 22.48431489 -10 22 C-13.33600367 19.94161475 -14.8262176 18.2606736 -17 15 C-17.33834017 10.80458195 -17.43391951 8.08479877 -15.875 4.1875 C-11.10648018 -1.37577312 -6.67833757 -1.33566751 0 0 Z " fill="#191919" transform="translate(131,42)"/>
<path d="M0 0 C0.66 0 1.32 0 2 0 C2.07347656 1.68029297 2.07347656 1.68029297 2.1484375 3.39453125 C2.22347856 4.86721203 2.29902582 6.33986707 2.375 7.8125 C2.4059375 8.55048828 2.436875 9.28847656 2.46875 10.04882812 C2.67346148 13.81893115 2.86433827 15.79650741 5 19 C7.20725073 19.36362818 7.20725073 19.36362818 9.625 19.1875 C10.44226562 19.16042969 11.25953125 19.13335937 12.1015625 19.10546875 C13.04128906 19.05326172 13.04128906 19.05326172 14 19 C15.23759823 15.28720531 15.35608897 11.68693654 15.5625 7.8125 C15.60568359 7.06291016 15.64886719 6.31332031 15.69335938 5.54101562 C15.79922685 3.69421625 15.9000976 1.84713166 16 0 C16.66 0 17.32 0 18 0 C18.16250994 2.89809389 18.28107636 5.78704851 18.375 8.6875 C18.45041016 9.91243164 18.45041016 9.91243164 18.52734375 11.16210938 C18.67135448 17.09055118 18.67135448 17.09055118 16.76293945 19.67578125 C14.03056671 22.06474103 12.018031 22.99683667 8.4375 23.625 C3.96557896 22.81192345 2.73474858 21.61079516 0 18 C-0.5959335 14.86834214 -0.47529122 11.86067657 -0.3125 8.6875 C-0.28994141 7.85154297 -0.26738281 7.01558594 -0.24414062 6.15429688 C-0.1855061 4.10208851 -0.09583215 2.05080798 0 0 Z " fill="#0E0E0E" transform="translate(44,41)"/>
<path d="M0 0 C0.99 0 1.98 0 3 0 C3 2.31 3 4.62 3 7 C3.99 7 4.98 7 6 7 C6 7.99 6 8.98 6 10 C5.01 10 4.02 10 3 10 C3.33 15.61 3.66 21.22 4 27 C4.66 27.33 5.32 27.66 6 28 C6 28.66 6 29.32 6 30 C1.125 29.125 1.125 29.125 0 28 C-0.08631874 26.65732587 -0.10706473 25.31025678 -0.09765625 23.96484375 C-0.09282227 22.75151367 -0.09282227 22.75151367 -0.08789062 21.51367188 C-0.07951172 20.66353516 -0.07113281 19.81339844 -0.0625 18.9375 C-0.05798828 18.08349609 -0.05347656 17.22949219 -0.04882812 16.34960938 C-0.03700373 14.23304337 -0.01906769 12.11651315 0 10 C-0.99 10 -1.98 10 -3 10 C-3 9.01 -3 8.02 -3 7 C-2.01 7 -1.02 7 0 7 C0 4.69 0 2.38 0 0 Z " fill="#E23B60" transform="translate(158,76)"/>
<path d="M0 0 C0.66 0 1.32 0 2 0 C2.06058594 0.65226562 2.12117188 1.30453125 2.18359375 1.9765625 C2.35669624 3.78215458 2.53939053 5.58684665 2.73046875 7.390625 C2.936198 9.38232266 3.10208712 11.37817605 3.25 13.375 C4.28657276 17.00300466 5.7983278 18.07899668 9 20 C12.18762109 20.79690838 12.18762109 20.79690838 15 21 C14.67 21.66 14.34 22.32 14 23 C8.97745369 23.2954439 6.10457614 22.98514628 2 20 C2 23.63 2 27.26 2 31 C1.34 31 0.68 31 0 31 C0 20.77 0 10.54 0 0 Z " fill="#CC1138" transform="translate(68,83)"/>
<path d="M0 0 C5.94 0 11.88 0 18 0 C17.34 1.32 16.68 2.64 16 4 C15.34 4 14.68 4 14 4 C14 4.66 14 5.32 14 6 C11.24832603 7.8711383 9.83822099 7.99432354 6.4375 7.875 C3 7 3 7 1.0625 5.125 C0 3 0 3 0 0 Z " fill="#FDEDF2" transform="translate(107,96)"/>
<path d="M0 0 C1.32 0 2.64 0 4 0 C4 7.92 4 15.84 4 24 C2.68 24 1.36 24 0 24 C0 16.08 0 8.16 0 0 Z " fill="#585858" transform="translate(139,41)"/>
<path d="M0 0 C1.32 0 2.64 0 4 0 C4 7.92 4 15.84 4 24 C2.68 24 1.36 24 0 24 C0 16.08 0 8.16 0 0 Z " fill="#585858" transform="translate(105,41)"/>
<path d="M0 0 C2.9375 2.375 2.9375 2.375 5 5 C5 5.66 5 6.32 5 7 C-0.28 7 -5.56 7 -11 7 C-9.31882796 0.27531184 -6.9732153 -0.9618228 0 0 Z " fill="#FEB1C7" transform="translate(118,86)"/>
<path d="M0 0 C0.99 0 1.98 0 3 0 C3 9.9 3 19.8 3 30 C2.01 30 1.02 30 0 30 C0 20.1 0 10.2 0 0 Z " fill="#1B1B1B" transform="translate(95,34)"/>
<path d="M0 0 C-4.75 4 -4.75 4 -7 4 C-8.21260877 7.63782632 -8.39544552 10.17735999 -8 14 C-5.2931137 17.77323546 -3.75244948 18.83964191 0.8125 19.8125 C1.864375 19.874375 2.91625 19.93625 4 20 C3.67 20.66 3.34 21.32 3 22 C-2.70035501 22.4560284 -5.54784247 21.60412752 -10 18 C-11.99110673 14.01778654 -11.65962535 9.31867919 -11 5 C-8.41741473 0.92679504 -4.78573009 -0.70378384 0 0 Z " fill="#C31E43" transform="translate(50,84)"/>
<path d="M0 0 C0.99 0 1.98 0 3 0 C3 7.59 3 15.18 3 23 C2.01 23 1.02 23 0 23 C0 15.41 0 7.82 0 0 Z " fill="#C52D4C" transform="translate(95,83)"/>
<path d="M0 0 C3.83473284 -0.35671933 5.55342875 -0.29771416 8.8125 1.875 C11.89485849 4.8692911 11.98707913 5.48213147 12.09765625 9.9140625 C12.09100226 11.48440463 12.07906939 13.05473119 12.0625 14.625 C12.05798828 15.42679688 12.05347656 16.22859375 12.04882812 17.0546875 C12.03703168 19.03649006 12.01909605 21.01825433 12 23 C11.34 23 10.68 23 10 23 C9.98582031 21.98679687 9.97164062 20.97359375 9.95703125 19.9296875 C10.03412652 11.54632144 10.03412652 11.54632144 6.6875 4.1875 C4.47885977 2.38976958 2.66092291 0.985527 0 0 Z " fill="#CB254B" transform="translate(138,83)"/>
<path d="M0 0 C0.99 0 1.98 0 3 0 C3.33 2.31 3.66 4.62 4 7 C4.66 7 5.32 7 6 7 C6.33 8.32 6.66 9.64 7 11 C6.01 11.33 5.02 11.66 4 12 C4.33 17.61 4.66 23.22 5 29 C4.01 28.67 3.02 28.34 2 28 C2 22.39 2 16.78 2 11 C2.99 11 3.98 11 5 11 C5 10.01 5 9.02 5 8 C4.01 8 3.02 8 2 8 C2 5.69 2 3.38 2 1 C1.34 0.67 0.68 0.34 0 0 Z " fill="#FCD1DD" transform="translate(159,75)"/>
<path d="M0 0 C1.32 0.66 2.64 1.32 4 2 C4.48 7.4 4.48 7.4 2.5 9.875 C-1.04165991 11.46874696 -4.17682523 11.59541246 -8 11 C-10.5 9.625 -10.5 9.625 -12 8 C-12 7.34 -12 6.68 -12 6 C-11.13375 6.350625 -10.2675 6.70125 -9.375 7.0625 C-5.75174758 8.068959 -3.6146678 7.86063519 0 7 C0.93423645 3.98968256 1.04449911 3.13349732 0 0 Z " fill="#C12548" transform="translate(30,95)"/>
<path d="M0 0 C4.65754061 -0.32494469 7.29301459 0.09452495 11 3 C14.18338925 6.95179356 14.29321709 10.01530948 14 15 C13.01 15 12.02 15 11 15 C10.93683594 14.38511719 10.87367187 13.77023438 10.80859375 13.13671875 C10.42222842 10.58670756 9.98353678 8.38858933 9 6 C5.58991365 4.03816375 5.58991365 4.03816375 2 3 C1.34 2.01 0.68 1.02 0 0 Z " fill="#212121" transform="translate(76,41)"/>
<path d="M0 0 C1.485 0.99 1.485 0.99 3 2 C2.34 2 1.68 2 1 2 C1 9.59 1 17.18 1 25 C0.34 25 -0.32 25 -1 25 C-1.02886984 21.02084841 -1.04675406 17.04172347 -1.0625 13.0625 C-1.07087891 11.92619141 -1.07925781 10.78988281 -1.08789062 9.61914062 C-1.09111328 8.53955078 -1.09433594 7.45996094 -1.09765625 6.34765625 C-1.10289307 5.34742432 -1.10812988 4.34719238 -1.11352539 3.31665039 C-1 1 -1 1 0 0 Z " fill="#F5C1C9" transform="translate(131,81)"/>
<path d="M0 0 C0.33 0 0.66 0 1 0 C1.29586132 5.02964252 1.0496128 7.9338496 -2 12 C-3.6875 13.8125 -3.6875 13.8125 -5 15 C-7.31 14.34 -9.62 13.68 -12 13 C-12 12.67 -12 12.34 -12 12 C-10.88625 11.71125 -9.7725 11.4225 -8.625 11.125 C-4.99708908 10.30758671 -4.99708908 10.30758671 -3 8 C-2.835 7.01 -2.67 6.02 -2.5 5 C-2 2 -2 2 0 0 Z " fill="#CF3356" transform="translate(89,91)"/>
<path d="M0 0 C2.0625 0.4375 2.0625 0.4375 4 1 C3.67 2.65 3.34 4.3 3 6 C2.01 6 1.02 6 0 6 C0 13.59 0 21.18 0 29 C-0.33 29 -0.66 29 -1 29 C-1.02465881 25.03069011 -1.04284023 21.06140966 -1.05493164 17.09204102 C-1.05997057 15.74079614 -1.06680177 14.38955674 -1.07543945 13.03833008 C-1.08752419 11.09979566 -1.09269828 9.161222 -1.09765625 7.22265625 C-1.10289307 6.05484619 -1.10812988 4.88703613 -1.11352539 3.68383789 C-1 1 -1 1 0 0 Z " fill="#FFE5F4" transform="translate(95,77)"/>
<path d="M0 0 C3.83428028 -0.36516955 5.78812732 -0.11001082 9.25 1.6875 C12.07842969 4.06595224 13.02552263 5.49188148 14 9 C13.34 9 12.68 9 12 9 C12 10.65 12 12.3 12 14 C11.67 14 11.34 14 11 14 C10.9175 12.906875 10.835 11.81375 10.75 10.6875 C10.35832667 7.02483452 10.35832667 7.02483452 8.1875 5.1875 C6.76253564 4.41394792 5.3252155 3.66260775 3.875 2.9375 C2 2 2 2 0 0 Z " fill="#2E2E2E" transform="translate(25,41)"/>
<path d="M0 0 C0.66 0.33 1.32 0.66 2 1 C2 1.99 2 2.98 2 4 C-4.6 4.33 -11.2 4.66 -18 5 C-18 4.01 -18 3.02 -18 2 C-12.06 2 -6.12 2 0 2 C0 1.34 0 0.68 0 0 Z " fill="#C11338" transform="translate(123,91)"/>
<path d="M0 0 C1.9453125 -0.29296875 1.9453125 -0.29296875 4.125 -0.1875 C5.40375 -0.125625 6.6825 -0.06375 8 0 C8.5625 1.9375 8.5625 1.9375 9 4 C7.10511048 5.89488952 4.42860854 5.18019112 1.91015625 5.23046875 C0 5 0 5 -2 3 C-1.34 2.01 -0.68 1.02 0 0 Z " fill="#FEF6F7" transform="translate(112,87)"/>
<path d="M0 0 C0.33 0 0.66 0 1 0 C1.04898438 1.14339844 1.09796875 2.28679687 1.1484375 3.46484375 C1.22345189 4.95575473 1.29900028 6.44663892 1.375 7.9375 C1.42140625 9.06961914 1.42140625 9.06961914 1.46875 10.22460938 C1.5726315 12.15507395 1.77895614 14.07942081 2 16 C2.66 16.33 3.32 16.66 4 17 C4 17.66 4 18.32 4 19 C2.35 18.67 0.7 18.34 -1 18 C-1.02684312 15.18743719 -1.04676188 12.37512759 -1.0625 9.5625 C-1.07087891 8.76005859 -1.07925781 7.95761719 -1.08789062 7.13085938 C-1.0965143 5.08704779 -1.0522815 3.04316098 -1 1 C-0.67 0.67 -0.34 0.34 0 0 Z " fill="#BD163D" transform="translate(160,87)"/>
<path d="M0 0 C0.66 0 1.32 0 2 0 C2.43127405 4.31274054 2.39417226 7.04200396 -0.3125 10.4375 C-3 13 -3 13 -6 13 C-4.97648478 10.79550567 -3.9690037 8.96156459 -2.4375 7.0625 C-0.79371058 4.70401953 -0.39201607 2.82251571 0 0 Z " fill="#101010" transform="translate(37,50)"/>
<path d="M0 0 C0 0.33 0 0.66 0 1 C-0.94875 1.20625 -1.8975 1.4125 -2.875 1.625 C-6.21456308 2.69742854 -6.21456308 2.69742854 -7.375 5.75 C-7.98665713 8.93061706 -8.15378444 11.77052676 -8 15 C-9.5 13.9375 -9.5 13.9375 -11 12 C-11.65341537 7.58944623 -11.51318284 5.7093998 -8.875 2.0625 C-5.56851204 -0.30954571 -3.9760803 -0.46233492 0 0 Z " fill="#FDD2DC" transform="translate(52,86)"/>
<path d="M0 0 C0.75 1.75 0.75 1.75 1 4 C-0.67991613 6.55639411 -2.03748492 7.77816319 -5.05078125 8.47265625 C-7.02598499 8.72174944 -9.01356104 8.86757074 -11 9 C-11 8.34 -11 7.68 -11 7 C-9.39125 6.38125 -9.39125 6.38125 -7.75 5.75 C-4.47734926 4.36260851 -2.34482838 2.72000092 0 0 Z " fill="#131313" transform="translate(88,55)"/>
<path d="M0 0 C1.4540625 0.0309375 1.4540625 0.0309375 2.9375 0.0625 C1.9475 0.743125 1.9475 0.743125 0.9375 1.4375 C-0.0525 2.241875 -0.0525 2.241875 -1.0625 3.0625 C-1.0625 3.7225 -1.0625 4.3825 -1.0625 5.0625 C-0.464375 5.206875 0.13375 5.35125 0.75 5.5 C2.49900404 5.9497439 4.22427023 6.49142341 5.9375 7.0625 C5.6075 7.7225 5.2775 8.3825 4.9375 9.0625 C-0.0125 7.0825 -0.0125 7.0825 -5.0625 5.0625 C-3.81634615 0.07788462 -3.81634615 0.07788462 0 0 Z " fill="#FDDBE3" transform="translate(26.0625,85.9375)"/>
<path d="M0 0 C5.35048061 0.37328935 7.50912907 1.9957657 11 6 C10.01 7.485 10.01 7.485 9 9 C8.2575 8.21625 7.515 7.4325 6.75 6.625 C4.45566682 4.43495469 2.87841142 3.17268614 0 2 C0 1.34 0 0.68 0 0 Z " fill="#CC284C" transform="translate(48,83)"/>
<path d="M0 0 C0.86625 0.639375 1.7325 1.27875 2.625 1.9375 C5.9598812 3.97548296 8.16047478 4.63433093 12 5 C11.67 5.66 11.34 6.32 11 7 C6.75519536 7.33292585 4.64457375 7.43885872 1.0625 5 C0.381875 4.34 -0.29875 3.68 -1 3 C-0.67 2.01 -0.34 1.02 0 0 Z " fill="#CB1E49" transform="translate(71,99)"/>
<path d="M0 0 C0.99 0 1.98 0 3 0 C3 2.31 3 4.62 3 7 C3.99 7.33 4.98 7.66 6 8 C3.36 8 0.72 8 -2 8 C-2.33 8.66 -2.66 9.32 -3 10 C-3 9.01 -3 8.02 -3 7 C-2.01 7 -1.02 7 0 7 C0 4.69 0 2.38 0 0 Z " fill="#CB395B" transform="translate(158,76)"/>
<path d="M0 0 C1.32 0.66 2.64 1.32 4 2 C3.6875 3.875 3.6875 3.875 3 6 C-0.8503105 8.56687367 -2.58569763 7.83288724 -7 7 C-4.35261084 5.5393715 -3.10551666 5 0 5 C0 4.01 0 3.02 0 2 C0 1.34 0 0.68 0 0 Z " fill="#FBCAD5" transform="translate(28,96)"/>
<path d="M0 0 C1.2065625 0.0309375 1.2065625 0.0309375 2.4375 0.0625 C2.4375 0.7225 2.4375 1.3825 2.4375 2.0625 C3.0975 2.3925 3.7575 2.7225 4.4375 3.0625 C4.1075 4.0525 3.7775 5.0425 3.4375 6.0625 C0.5 5.25 0.5 5.25 -2.5625 4.0625 C-2.8925 3.0725 -3.2225 2.0825 -3.5625 1.0625 C-2.5625 0.0625 -2.5625 0.0625 0 0 Z " fill="#FDFBFC" transform="translate(27.5625,86.9375)"/>
<path d="M0 0 C0.99 0.33 1.98 0.66 3 1 C2 2.9375 2 2.9375 0 5 C-2.69924572 5.66549451 -5.20631637 5.81680763 -8 6 C-8 5.34 -8 4.68 -8 4 C-5.36 3.34 -2.72 2.68 0 2 C0 1.34 0 0.68 0 0 Z " fill="#C12146" transform="translate(121,100)"/>
<path d="M0 0 C1.98 0.99 1.98 0.99 4 2 C4 3.98 4 5.96 4 8 C2.68 8.33 1.36 8.66 0 9 C0.185625 8.071875 0.37125 7.14375 0.5625 6.1875 C1.24123881 2.98656229 1.24123881 2.98656229 0 0 Z " fill="#C71D40" transform="translate(30,95)"/>
<path d="M0 0 C2.475 0.99 2.475 0.99 5 2 C5.33 4.31 5.66 6.62 6 9 C3.72494996 6.83328568 1.76424908 4.60436769 0 2 C0 1.34 0 0.68 0 0 Z " fill="#C32143" transform="translate(83,85)"/>
<path d="M0 0 C3.94727588 -0.17942163 6.5980513 -0.09350689 10 2 C9.67 2.99 9.34 3.98 9 5 C2.25 3.375 2.25 3.375 0 0 Z " fill="#C53957" transform="translate(23,83)"/>
<path d="M0 0 C1.45945288 0.08708669 2.91765868 0.19526907 4.375 0.3125 C5.59316406 0.39951172 5.59316406 0.39951172 6.8359375 0.48828125 C9 1 9 1 11 4 C6.32674845 4 4.17640953 2.92757363 0 1 C0 0.67 0 0.34 0 0 Z " fill="#2D2D2D" transform="translate(153,41)"/>
<path d="M0 0 C2.0625 0.4375 2.0625 0.4375 4 1 C3.67 2.65 3.34 4.3 3 6 C1.68 6 0.36 6 -1 6 C-1.042721 4.33388095 -1.04063832 2.66617115 -1 1 C-0.67 0.67 -0.34 0.34 0 0 Z " fill="#E2AABB" transform="translate(95,77)"/>
<path d="M0 0 C7.75 0.875 7.75 0.875 10 2 C9.67 2.99 9.34 3.98 9 5 C2.25 3.375 2.25 3.375 0 0 Z " fill="#2C2C2C" transform="translate(123,41)"/>
<path d="M0 0 C2.64 0.66 5.28 1.32 8 2 C7.01 3.485 7.01 3.485 6 5 C3.69 4.34 1.38 3.68 -1 3 C-0.67 2.01 -0.34 1.02 0 0 Z " fill="#CA304F" transform="translate(23,92)"/>
<path d="M0 0 C1.670625 0.061875 1.670625 0.061875 3.375 0.125 C3.375 0.455 3.375 0.785 3.375 1.125 C1.395 1.125 -0.585 1.125 -2.625 1.125 C-2.625 2.445 -2.625 3.765 -2.625 5.125 C-3.945 5.455 -5.265 5.785 -6.625 6.125 C-5.71577947 1.57889733 -4.95184304 0.17075321 0 0 Z " fill="#FCD3DE" transform="translate(114.625,85.875)"/>
<path d="M0 0 C4.455 0.99 4.455 0.99 9 2 C8.01 2.33 7.02 2.66 6 3 C6 3.66 6 4.32 6 5 C4.02 4.34 2.04 3.68 0 3 C0 2.01 0 1.02 0 0 Z " fill="#2A2929" transform="translate(149,59)"/>
<path d="M0 0 C-1 2 -1 2 -4.4375 3.1875 C-8 4 -8 4 -10 3 C-6.68152292 -0.06320961 -4.44849969 -0.3033068 0 0 Z " fill="#191919" transform="translate(126,42)"/>
<path d="M0 0 C1.485 0.99 1.485 0.99 3 2 C4.9896995 2.39013716 6.99019869 2.73202649 9 3 C7.68 3.33 6.36 3.66 5 4 C5 4.66 5 5.32 5 6 C3.68 5.67 2.36 5.34 1 5 C0.67 3.35 0.34 1.7 0 0 Z " fill="#2A2A2A" transform="translate(72,58)"/>
<path d="M0 0 C-1.62366466 3.24732932 -4.75387839 3.70155136 -8 5 C-7.625 3.0625 -7.625 3.0625 -7 1 C-4.53721199 -0.231394 -2.7204945 -0.07159196 0 0 Z " fill="#0B0B0B" transform="translate(157,42)"/>
<path d="M0 0 C2.31 0.33 4.62 0.66 7 1 C7 1.99 7 2.98 7 4 C5.35 3.67 3.7 3.34 2 3 C2 2.34 2 1.68 2 1 C1.34 0.67 0.68 0.34 0 0 Z " fill="#CC3458" transform="translate(76,83)"/>
<path d="M0 0 C5.75 -0.125 5.75 -0.125 8 1 C7.67 1.99 7.34 2.98 7 4 C4.625 3.6875 4.625 3.6875 2 3 C1.34 2.01 0.68 1.02 0 0 Z " fill="#373737" transform="translate(25,41)"/>
</svg>
